<svg xmlns="http://www.w3.org/2000/svg" width="388.3592834472656" height="413.6612854003906" viewBox="-96.7291488647461 -99.61182403564453 388.3592834472656 413.6612854003906"><title>Neo4j Graph Visualization</title><desc>Created using Neo4j (http://www.neo4j.com/)</desc><g class="layer relationships"><g class="relationship" transform="translate(110.85696113051821 285.04947571738455) rotate(264.11306684100407)"><path class="outline" fill="#A5ABB6" stroke="none" d="M 21.40063509461097,12.933012701892217 L 21.90063509461097,12.06698729810778 A 64.40818070604219 64.40818070604219 0 0 0 42.65990559349585,19.6710650026684 L 42.48221357163344,20.65515114999822 A 65.40818070604219 65.40818070604219 0 0 1 21.40063509461097,12.933012701892217 Z M 61.88657506872276,21.231479982050843 L 61.76760142449218,20.238582569435373 A 64.40818070604219 64.40818070604219 0 0 0 82.94157788720689,13.879963997821607 L 81.5984168730252,11.197443077123607 L 89.42465353786582,11.19300845151402 L 84.73245923944913,17.45665855875227 L 83.38929822526744,14.774137638054272 A 65.40818070604219 65.40818070604219 0 0 1 61.88657506872276,21.231479982050843"/><text text-anchor="middle" pointer-events="none" font-size="8px" fill="#000000" x="52.177737694192416" y="24.167436883219636" transform="rotate(180 52.177737694192416 21.167436883219636)" font-family="sans-serif">trek</text></g><g class="relationship" transform="translate(99.39227223356319 173.85997742868534) rotate(335.7211456407731)"><path class="outline" fill="#A5ABB6" stroke="none" d="M 24.018736134675446,-6.953439040707552 L 24.277555179777966,-5.987513214418485 A 137.97494277954252 137.97494277954252 0 0 1 35.05420228667231,-8.41725276059097 L 34.87348906926427,-9.400788592705908 A 138.97494277954252 138.97494277954252 0 0 0 24.018736134675446,-6.953439040707552 Z M 81.28313693809983,-10.047692238251102 L 81.12990759765803,-9.059501583960241 A 137.97494277954252 137.97494277954252 0 0 1 91.97009088597281,-6.931078833539269 L 91.27470390938925,-4.012785333426923 L 98.89534021566554,-5.794891471529681 L 92.89727352141756,-10.822136833689065 L 92.201886544834,-7.903843333576718 A 138.97494277954252 138.97494277954252 0 0 0 81.28313693809983,-10.047692238251102"/><text text-anchor="middle" pointer-events="none" font-size="8px" fill="#000000" x="58.05808467917745" y="-8.1754448161644" font-family="sans-serif">twowheeler</text></g><g class="relationship" transform="translate(211.70903358234605 123.19690923920197) rotate(295.59966661233534)"><path class="outline" fill="#A5ABB6" stroke="none" d="M 24.018736134675446,-6.953439040707552 L 24.277555179777966,-5.987513214418485 A 127.32874978326406 127.32874978326406 0 0 1 32.4001920850221,-7.88116745599919 L 32.20516567841693,-8.861965447803158 A 128.32874978326407 128.32874978326407 0 0 0 24.018736134675446,-6.953439040707552 Z M 78.59047419117778,-9.536358891999399 L 78.42404372556138,-8.550305698649908 A 127.32874978326406 127.32874978326406 0 0 1 86.598299248035,-6.8935910779623235 L 85.90641374648315,-3.9744654464174363 L 93.52490663856506,-5.765712512932138 L 87.52081325010415,-10.78575858668884 L 86.8289277485523,-7.866632955143952 A 128.32874978326407 128.32874978326407 0 0 0 78.59047419117778,-9.536358891999399"/><text text-anchor="middle" pointer-events="none" font-size="8px" fill="#000000" x="55.374361858329635" y="-7.812627015141587" font-family="sans-serif">twowheeler</text></g><g class="relationship" transform="translate(262.63013267762045 16.914789746593687) rotate(225.47373130170035)"><path class="outline" fill="#A5ABB6" stroke="none" d="M 25 0.5 L 48.21725245855841 0.5 L 48.21725245855841 -0.5 L 25 -0.5 Z M 67.55318995855842 0.5 L 90.77044241711683 0.5 L 90.77044241711683 3.5 L 97.77044241711683 0 L 90.77044241711683 -3.5 L 90.77044241711683 -0.5 L 67.55318995855842 -0.5 Z"/><text text-anchor="middle" pointer-events="none" font-size="8px" fill="#000000" x="57.88522120855841" y="3" transform="rotate(180 57.88522120855841 0)" font-family="sans-serif">trek</text></g><g class="relationship" transform="translate(176.53905437107682 -70.61182201983523) rotate(521.6131596862278)"><path class="outline" fill="#A5ABB6" stroke="none" d="M 25 0.5 L 47.38343719276902 0.5 L 47.38343719276902 -0.5 L 25 -0.5 Z M 66.71937469276902 0.5 L 89.10281188553805 0.5 L 89.10281188553805 3.5 L 96.10281188553805 0 L 89.10281188553805 -3.5 L 89.10281188553805 -0.5 L 66.71937469276902 -0.5 Z"/><text text-anchor="middle" pointer-events="none" font-size="8px" fill="#000000" x="57.05140594276902" y="3" transform="rotate(180 57.05140594276902 0)" font-family="sans-serif">trek</text></g><g class="relationship" transform="translate(262.63013267762045 16.914789746593687) rotate(534.7431762329383)"><path class="outline" fill="#A5ABB6" stroke="none" d="M 21.40063509461097,12.933012701892217 L 21.90063509461097,12.06698729810778 A 56.83549113179147 56.83549113179147 0 0 0 39.01135544551107,18.545417770054478 L 38.8124124085137,19.5254288251096 A 57.83549113179147 57.83549113179147 0 0 1 21.40063509461097,12.933012701892217 Z M 58.214946116976236,20.139884676755017 L 58.07841117447051,19.149249421237144 A 56.83549113179147 56.83549113179147 0 0 0 75.56476240906859,13.76646828070911 L 74.23215942214163,11.078686801638804 L 82.05835302472046,11.105024891057939 L 77.34156639163787,17.35017691946952 L 76.00896340471091,14.662395440399214 A 57.83549113179147 57.83549113179147 0 0 1 58.214946116976236,20.139884676755017"/><text text-anchor="middle" pointer-events="none" font-size="8px" fill="#000000" x="48.50354165992962" y="23.152769546377385" transform="rotate(180 48.50354165992962 20.152769546377385)" font-family="sans-serif">trek</text></g><g class="relationship" transform="translate(158.6129424395874 26.485119730337807) rotate(211.26718579501522)"><path class="outline" fill="#A5ABB6" stroke="none" d="M 24.018736134675446,6.953439040707552 L 24.277555179777966,5.987513214418485 A 118.6245922819382 118.6245922819382 0 0 0 43.58277969951425,9.480781026633053 L 43.48670283247421,10.476154944123252 A 119.6245922819382 119.6245922819382 0 0 1 24.018736134675446,6.953439040707552 Z M 62.88028859061825,10.768376964068736 L 62.81424506595458,9.770560220949037 A 118.6245922819382 118.6245922819382 0 0 0 82.21595434411755,6.860527428878643 L 81.52715714936252,3.940671537828947 L 89.14375095569268,5.739976622958537 L 83.13435060379092,10.753668616944903 L 82.4455534090359,7.833812725895208 A 119.6245922819382 119.6245922819382 0 0 1 62.88028859061825,10.768376964068736"/><text text-anchor="middle" pointer-events="none" font-size="8px" fill="#000000" x="53.18509651372845" y="13.51602723050965" transform="rotate(180 53.18509651372845 10.51602723050965)" font-family="sans-serif">trek</text></g><g class="relationship" transform="translate(158.6129424395874 26.485119730337807) rotate(211.26718579501522)"><path class="outline" fill="#A5ABB6" stroke="none" d="M 24.018736134675446,-6.953439040707552 L 24.277555179777966,-5.987513214418485 A 118.6245922819382 118.6245922819382 0 0 1 30.240589696481216,-7.421172238345562 L 30.032038765283193,-8.39918374599587 A 119.6245922819382 119.6245922819382 0 0 0 24.018736134675446,-6.953439040707552 Z M 76.39142173119043,-9.097725660970795 L 76.21243208998972,-8.113874702571692 A 118.6245922819382 118.6245922819382 0 0 1 82.21595434411755,-6.860527428878643 L 81.52715714936252,-3.940671537828947 L 89.14375095569268,-5.739976622958537 L 83.13435060379092,-10.753668616944903 L 82.4455534090359,-7.833812725895208 A 119.6245922819382 119.6245922819382 0 0 0 76.39142173119043,-9.097725660970795"/><text text-anchor="middle" pointer-events="none" font-size="8px" fill="#000000" x="53.18509651372844" y="-7.51602723050965" transform="rotate(180 53.18509651372844 -10.51602723050965)" font-family="sans-serif">twowheeler</text></g><g class="relationship" transform="translate(262.63013267762045 16.914789746593687) rotate(534.7431762329383)"><path class="outline" fill="#A5ABB6" stroke="none" d="M 25 0.5 L 37.72240663348651 0.5 L 37.72240663348651 -0.5 L 25 -0.5 Z M 59.73412538348651 0.5 L 72.45653201697301 0.5 L 72.45653201697301 3.5 L 79.45653201697301 0 L 72.45653201697301 -3.5 L 72.45653201697301 -0.5 L 59.73412538348651 -0.5 Z"/><text text-anchor="middle" pointer-events="none" font-size="8px" fill="#000000" x="48.72826600848651" y="3" transform="rotate(180 48.72826600848651 0)" font-family="sans-serif">road</text></g><g class="relationship" transform="translate(262.63013267762045 16.914789746593687) rotate(534.7431762329383)"><path class="outline" fill="#A5ABB6" stroke="none" d="M 21.40063509461097,-12.933012701892217 L 21.90063509461097,-12.06698729810778 A 56.83549113179147 56.83549113179147 0 0 1 26.271502844052147,-14.343782068761229 L 25.84840668815382,-15.249866856661377 A 57.83549113179147 57.83549113179147 0 0 0 21.40063509461097,-12.933012701892217 Z M 71.42350718334698,-16.693177694791004 L 71.05859065700942,-15.76213745462642 A 56.83549113179147 56.83549113179147 0 0 1 75.56476240906859,-13.76646828070911 L 74.23215942214163,-11.078686801638804 L 82.05835302472046,-11.105024891057939 L 77.34156639163787,-17.35017691946952 L 76.00896340471091,-14.662395440399214 A 57.83549113179147 57.83549113179147 0 0 0 71.42350718334698,-16.693177694791004"/><text text-anchor="middle" pointer-events="none" font-size="8px" fill="#000000" x="48.50354165992962" y="-17.152769546377385" transform="rotate(180 48.50354165992962 -20.152769546377385)" font-family="sans-serif">twowheeler</text></g><g class="relationship" transform="translate(211.70903358234605 123.19690923920197) rotate(295.59966661233534)"><path class="outline" fill="#A5ABB6" stroke="none" d="M 24.018736134675446,6.953439040707552 L 24.277555179777966,5.987513214418485 A 127.32874978326406 127.32874978326406 0 0 0 45.766964714890406,9.808853064610531 L 45.67691674129915,10.804790493594965 A 128.32874978326407 128.32874978326407 0 0 1 24.018736134675446,6.953439040707552 Z M 65.0679359534177,11.086715453290736 L 65.00687967916996,10.088581127974251 A 127.32874978326406 127.32874978326406 0 0 0 86.598299248035,6.8935910779623235 L 85.90641374648315,3.9744654464174363 L 93.52490663856506,5.765712512932138 L 87.52081325010415,10.78575858668884 L 86.8289277485523,7.866632955143952 A 128.32874978326407 128.32874978326407 0 0 1 65.0679359534177,11.086715453290736"/><text text-anchor="middle" pointer-events="none" font-size="8px" fill="#000000" x="55.37436185832967" y="13.812627015141587" font-family="sans-serif">trek</text></g><g class="relationship" transform="translate(99.39227223356319 173.85997742868534) rotate(335.7211456407731)"><path class="outline" fill="#A5ABB6" stroke="none" d="M 24.018736134675446,6.953439040707552 L 24.277555179777966,5.987513214418485 A 137.97494277954252 137.97494277954252 0 0 0 48.445437542013394,10.205231678501349 L 48.36177988401035,11.201726232554421 A 138.97494277954252 138.97494277954252 0 0 1 24.018736134675446,6.953439040707552 Z M 67.74988977980028,11.471976914207147 L 67.6940394840095,10.47353776009706 A 137.97494277954252 137.97494277954252 0 0 0 91.97009088597281,6.931078833539269 L 91.27470390938925,4.012785333426923 L 98.89534021566554,5.794891471529681 L 92.89727352141756,10.822136833689065 L 92.201886544834,7.903843333576718 A 138.97494277954252 138.97494277954252 0 0 1 67.74988977980028,11.471976914207147"/><text text-anchor="middle" pointer-events="none" font-size="8px" fill="#000000" x="58.05808467917746" y="14.1754448161644" font-family="sans-serif">trek</text></g><g class="relationship" transform="translate(99.39227223356319 173.85997742868534) rotate(501.26663036874356)"><path class="outline" fill="#A5ABB6" stroke="none" d="M 25 0.5 L 44.06615610247174 0.5 L 44.06615610247174 -0.5 L 25 -0.5 Z M 63.40209360247174 0.5 L 82.46824970494347 0.5 L 82.46824970494347 3.5 L 89.46824970494347 0 L 82.46824970494347 -3.5 L 82.46824970494347 -0.5 L 63.40209360247174 -0.5 Z"/><text text-anchor="middle" pointer-events="none" font-size="8px" fill="#000000" x="53.73412485247174" y="3" transform="rotate(180 53.73412485247174 0)" font-family="sans-serif">trek</text></g><g class="relationship" transform="translate(10.099467968852817 245.48242710095928) rotate(226.9470543198762)"><path class="outline" fill="#A5ABB6" stroke="none" d="M 21.40063509461097,-12.933012701892217 L 21.90063509461097,-12.06698729810778 A 66.70445198455185 66.70445198455185 0 0 1 30.8308075309503,-16.372155862664307 L 30.464684238885887,-17.302722214413564 A 67.70445198455185 67.70445198455185 0 0 0 21.40063509461097,-12.933012701892217 Z M 76.3289353545216,-18.63967494511148 L 76.01764010509777,-17.68936169797339 A 66.70445198455185 66.70445198455185 0 0 1 85.18342893943856,-13.911694275307083 L 83.83731633546348,-11.230653272744933 L 91.66354337941276,-11.217605033125611 L 86.97824574473866,-17.486415612056614 L 85.63213314076359,-14.805374609494466 A 67.70445198455185 67.70445198455185 0 0 0 76.3289353545216,-18.63967494511148"/><text text-anchor="middle" pointer-events="none" font-size="8px" fill="#000000" x="53.29466873164306" y="-18.475154515973088" transform="rotate(180 53.29466873164306 -21.475154515973088)" font-family="sans-serif">twowheeler</text></g><g class="relationship" transform="translate(-67.72914614303835 162.17592884531123) rotate(315.2178729670774)"><path class="outline" fill="#A5ABB6" stroke="none" d="M 21.40063509461097,12.933012701892217 L 21.90063509461097,12.06698729810778 A 68.22528118513215 68.22528118513215 0 0 0 44.50681759562764,20.230137644051794 L 44.338163719942955,21.215812981176825 A 69.22528118513215 69.22528118513215 0 0 1 21.40063509461097,12.933012701892217 Z M 63.74255761013946,21.774585747619923 L 63.63090357579481,20.7808386084469 A 68.22528118513215 68.22528118513215 0 0 0 86.66937195873847,13.932080662084353 L 85.32136302103802,11.25199262176185 L 93.14757887577439,11.233407814170393 L 88.46671720900574,17.505531382514356 L 87.1187082713053,14.825443342191853 A 69.22528118513215 69.22528118513215 0 0 1 63.74255761013946,21.774585747619923"/><text text-anchor="middle" pointer-events="none" font-size="8px" fill="#000000" x="54.03506890532056" y="24.678965281705672" font-family="sans-serif">trek</text></g><g class="relationship" transform="translate(14.238629845853453 80.82917578021754) rotate(292.7043871615152)"><path class="outline" fill="#A5ABB6" stroke="none" d="M 25 0.5 L 48.2089188870682 0.5 L 48.2089188870682 -0.5 L 25 -0.5 Z M 67.5448563870682 0.5 L 90.7537752741364 0.5 L 90.7537752741364 3.5 L 97.7537752741364 0 L 90.7537752741364 -3.5 L 90.7537752741364 -0.5 L 67.5448563870682 -0.5 Z"/><text text-anchor="middle" pointer-events="none" font-size="8px" fill="#000000" x="57.8768876370682" y="3" font-family="sans-serif">trek</text></g><g class="relationship" transform="translate(-67.72914614303835 162.17592884531123) rotate(315.2178729670774)"><path class="outline" fill="#A5ABB6" stroke="none" d="M 25 0.5 L 43.23496356423095 0.5 L 43.23496356423095 -0.5 L 25 -0.5 Z M 65.24668231423095 0.5 L 83.4816458784619 0.5 L 83.4816458784619 3.5 L 90.4816458784619 0 L 83.4816458784619 -3.5 L 83.4816458784619 -0.5 L 65.24668231423095 -0.5 Z"/><text text-anchor="middle" pointer-events="none" font-size="8px" fill="#000000" x="54.24082293923095" y="3" font-family="sans-serif">road</text></g><g class="relationship" transform="translate(-67.72914614303835 162.17592884531123) rotate(315.2178729670774)"><path class="outline" fill="#A5ABB6" stroke="none" d="M 21.40063509461097,-12.933012701892217 L 21.90063509461097,-12.06698729810778 A 68.22528118513215 68.22528118513215 0 0 1 31.54334589322394,-16.668199337916192 L 31.184682222383906,-17.601666193899604 A 69.22528118513215 69.22528118513215 0 0 0 21.40063509461097,-12.933012701892217 Z M 77.08221781009792,-18.923340711454316 L 76.77786451947603,-17.970781487842657 A 68.22528118513215 68.22528118513215 0 0 1 86.66937195873847,-13.932080662084353 L 85.32136302103802,-11.25199262176185 L 93.14757887577439,-11.233407814170393 L 88.46671720900574,-17.505531382514356 L 87.1187082713053,-14.825443342191853 A 69.22528118513215 69.22528118513215 0 0 0 77.08221781009792,-18.923340711454316"/><text text-anchor="middle" pointer-events="none" font-size="8px" fill="#000000" x="54.035068905320564" y="-18.678965281705672" font-family="sans-serif">twowheeler</text></g><g class="relationship" transform="translate(10.099467968852817 245.48242710095928) rotate(226.9470543198762)"><path class="outline" fill="#A5ABB6" stroke="none" d="M 25 0.5 L 42.4969164920487 0.5 L 42.4969164920487 -0.5 L 25 -0.5 Z M 64.5086352420487 0.5 L 82.0055517340974 0.5 L 82.0055517340974 3.5 L 89.0055517340974 0 L 82.0055517340974 -3.5 L 82.0055517340974 -0.5 L 64.5086352420487 -0.5 Z"/><text text-anchor="middle" pointer-events="none" font-size="8px" fill="#000000" x="53.5027758670487" y="3" transform="rotate(180 53.5027758670487 0)" font-family="sans-serif">road</text></g><g class="relationship" transform="translate(10.099467968852817 245.48242710095928) rotate(226.9470543198762)"><path class="outline" fill="#A5ABB6" stroke="none" d="M 21.40063509461097,12.933012701892217 L 21.90063509461097,12.06698729810778 A 66.70445198455185 66.70445198455185 0 0 0 43.770401020231226,20.00796601879992 L 43.59826168432431,20.993038629846197 A 67.70445198455185 67.70445198455185 0 0 1 21.40063509461097,12.933012701892217 Z M 63.00269471604292,21.558682003461783 L 62.88822907306091,20.565254795974127 A 66.70445198455185 66.70445198455185 0 0 0 85.18342893943856,13.911694275307083 L 83.83731633546348,11.230653272744933 L 91.66354337941276,11.217605033125611 L 86.97824574473866,17.486415612056614 L 85.63213314076359,14.805374609494466 A 67.70445198455185 67.70445198455185 0 0 1 63.00269471604292,21.558682003461783"/><text text-anchor="middle" pointer-events="none" font-size="8px" fill="#000000" x="53.294668731643064" y="24.475154515973088" transform="rotate(180 53.294668731643064 21.475154515973088)" font-family="sans-serif">trek</text></g><g class="relationship" transform="translate(110.85696113051821 285.04947571738455) rotate(264.11306684100407)"><path class="outline" fill="#A5ABB6" stroke="none" d="M 25 0.5 L 26.418794146841265 0.5 L 26.418794146841265 -0.5 L 25 -0.5 Z M 78.36020039684126 0.5 L 79.77899454368253 0.5 L 79.77899454368253 3.5 L 86.77899454368253 0 L 79.77899454368253 -3.5 L 79.77899454368253 -0.5 L 78.36020039684126 -0.5 Z"/><text text-anchor="middle" pointer-events="none" font-size="8px" fill="#000000" x="52.389497271841265" y="3" transform="rotate(180 52.389497271841265 0)" font-family="sans-serif">PublicTran…</text></g><g class="relationship" transform="translate(110.85696113051821 285.04947571738455) rotate(264.11306684100407)"><path class="outline" fill="#A5ABB6" stroke="none" d="M 21.40063509461097,-12.933012701892217 L 21.90063509461097,-12.06698729810778 A 64.40818070604219 64.40818070604219 0 0 1 41.35597160390028,-19.42171660679125 L 41.15803473153438,-20.401931376399432 A 65.40818070604219 65.40818070604219 0 0 0 21.40063509461097,-12.933012701892217 Z M 63.22344822243797,-21.05729609880362 L 63.08403564932594,-20.067061715206336 A 64.40818070604219 64.40818070604219 0 0 1 82.94157788720689,-13.879963997821607 L 81.5984168730252,-11.197443077123607 L 89.42465353786582,-11.19300845151402 L 84.73245923944913,-17.45665855875227 L 83.38929822526744,-14.774137638054272 A 65.40818070604219 65.40818070604219 0 0 0 63.22344822243797,-21.05729609880362"/><text text-anchor="middle" pointer-events="none" font-size="8px" fill="#000000" x="52.177737694192416" y="-18.167436883219636" transform="rotate(180 52.177737694192416 -21.167436883219636)" font-family="sans-serif">road</text></g><g class="relationship" transform="translate(211.70903358234605 123.19690923920197) rotate(241.23261360232505)"><path class="outline" fill="#A5ABB6" stroke="none" d="M 24.018736134675446,-6.953439040707552 L 24.277555179777966,-5.987513214418485 A 112.35042061998628 112.35042061998628 0 0 1 28.690792070226223,-7.074853307657577 L 28.47125402528458,-8.050457247185903 A 113.35042061998628 113.35042061998628 0 0 0 24.018736134675446,-6.953439040707552 Z M 74.80745116169346,-8.767417597364144 L 74.61820204128568,-7.785488490745507 A 112.35042061998628 112.35042061998628 0 0 1 79.06296704624764,-6.835208331926948 L 78.37653481547683,-3.9147955541575064 L 85.99166889950479,-5.720268589756657 L 79.9782100206087,-10.729092035619537 L 79.2917777898379,-7.808679257850095 A 113.35042061998628 113.35042061998628 0 0 0 74.80745116169346,-8.767417597364144"/><text text-anchor="middle" pointer-events="none" font-size="8px" fill="#000000" x="51.61005728463083" y="-7.3022544042918724" transform="rotate(180 51.61005728463083 -10.302254404291872)" font-family="sans-serif">twowheeler</text></g><g class="relationship" transform="translate(211.70903358234605 123.19690923920197) rotate(241.23261360232505)"><path class="outline" fill="#A5ABB6" stroke="none" d="M 24.018736134675446,6.953439040707552 L 24.277555179777966,5.987513214418485 A 112.35042061998628 112.35042061998628 0 0 0 42.01195436873831,9.24159010409059 L 41.91098430267028,10.236479568181068 A 113.35042061998628 113.35042061998628 0 0 1 24.018736134675446,6.953439040707552 Z M 61.3065221728608,10.536586881311877 L 61.23638093855514,9.53904981069742 A 112.35042061998628 112.35042061998628 0 0 0 79.06296704624764,6.835208331926948 L 78.37653481547683,3.9147955541575064 L 85.99166889950479,5.720268589756657 L 79.9782100206087,10.729092035619537 L 79.2917777898379,7.808679257850095 A 113.35042061998628 113.35042061998628 0 0 1 61.3065221728608,10.536586881311877"/><text text-anchor="middle" pointer-events="none" font-size="8px" fill="#000000" x="51.61005728463084" y="13.302254404291872" transform="rotate(180 51.61005728463084 10.302254404291872)" font-family="sans-serif">trek</text></g><g class="relationship" transform="translate(110.85696113051821 285.04947571738455) rotate(201.43972968179622)"><path class="outline" fill="#A5ABB6" stroke="none" d="M 24.018736134675446,-6.953439040707552 L 24.277555179777966,-5.987513214418485 A 108.19698732546557 108.19698732546557 0 0 1 40.97390631601765,-9.081792351341846 L 40.86940165201722,-10.076316747825985 A 109.19698732546557 109.19698732546557 0 0 0 24.018736134675446,-6.953439040707552 Z M 60.26627499645623,-10.381873902940427 L 60.19314771456217,-9.38455128681123 A 108.19698732546557 108.19698732546557 0 0 1 76.97867797181628,-6.817709136499322 L 76.29388029509727,-3.8969126454783805 L 83.90800273031832,-5.70664730599178 L 77.89174154077497,-10.712104457860576 L 77.20694386405596,-7.791307966839635 A 109.19698732546557 109.19698732546557 0 0 0 60.26627499645623,-10.381873902940427"/><text text-anchor="middle" pointer-events="none" font-size="8px" fill="#000000" x="50.56891493248125" y="-7.160751863575726" transform="rotate(180 50.56891493248125 -10.160751863575726)" font-family="sans-serif">trek</text></g><g class="relationship" transform="translate(110.85696113051821 285.04947571738455) rotate(201.43972968179622)"><path class="outline" fill="#A5ABB6" stroke="none" d="M 24.018736134675446,6.953439040707552 L 24.277555179777966,5.987513214418485 A 108.19698732546557 108.19698732546557 0 0 0 39.65035190286985,8.934472379307152 L 39.533614417550965,9.927635185458001 A 109.19698732546557 109.19698732546557 0 0 1 24.018736134675446,6.953439040707552 Z M 61.606082604943175,10.275340739127898 L 61.52068568410299,9.278993728337483 A 108.19698732546557 108.19698732546557 0 0 0 76.97867797181628,6.817709136499322 L 76.29388029509727,3.8969126454783805 L 83.90800273031832,5.70664730599178 L 77.89174154077497,10.712104457860576 L 77.20694386405596,7.791307966839635 A 109.19698732546557 109.19698732546557 0 0 1 61.606082604943175,10.275340739127898"/><text text-anchor="middle" pointer-events="none" font-size="8px" fill="#000000" x="50.568914932481285" y="13.160751863575726" transform="rotate(180 50.568914932481285 10.160751863575726)" font-family="sans-serif">road</text></g><g class="relationship" transform="translate(99.39227223356319 173.85997742868534) rotate(227.53127769434212)"><path class="outline" fill="#A5ABB6" stroke="none" d="M 25 0.5 L 49.89127495631659 0.5 L 49.89127495631659 -0.5 L 25 -0.5 Z M 69.2272124563166 0.5 L 94.11848741263319 0.5 L 94.11848741263319 3.5 L 101.11848741263319 0 L 94.11848741263319 -3.5 L 94.11848741263319 -0.5 L 69.2272124563166 -0.5 Z"/><text text-anchor="middle" pointer-events="none" font-size="8px" fill="#000000" x="59.55924370631659" y="3" transform="rotate(180 59.55924370631659 0)" font-family="sans-serif">trek</text></g></g><g class="layer nodes"><g class="node" transform="translate(110.85696113051821,285.04947571738455)"><circle class="outline" cx="0" cy="0" r="25" fill="#F16667" stroke="#eb2728" stroke-width="2px"/><text text-anchor="middle" pointer-events="none" font-family="sans-serif" dy="1.5625" font-size="25" fill="#FFFFFF"/><text text-anchor="middle" pointer-events="none" x="0" y="5" font-size="10px" fill="#FFFFFF" font-family="sans-serif"> Darjeeling</text></g><g class="node" transform="translate(61.61872452238597,-32.412229953268465)"><circle class="outline" cx="0" cy="0" r="25" fill="#D9C8AE" stroke="#c0a378" stroke-width="2px"/><text text-anchor="middle" pointer-events="none" font-family="sans-serif" dy="1.5625" font-size="25" fill="#2A2C34"/><text text-anchor="middle" pointer-events="none" x="0" y="5" font-size="10px" fill="#2A2C34" font-family="sans-serif"> Sandak…</text></g><g class="node" transform="translate(99.39227223356319,173.85997742868534)"><circle class="outline" cx="0" cy="0" r="25" fill="#F16667" stroke="#eb2728" stroke-width="2px"/><text text-anchor="middle" pointer-events="none" font-family="sans-serif" dy="1.5625" font-size="25" fill="#FFFFFF"/><text text-anchor="middle" pointer-events="none" x="0" y="5" font-size="10px" fill="#FFFFFF" font-family="sans-serif"> Rimbik</text></g><g class="node" transform="translate(211.70903358234605,123.19690923920197)"><circle class="outline" cx="0" cy="0" r="25" fill="#8DCC93" stroke="#5db665" stroke-width="2px"/><text text-anchor="middle" pointer-events="none" font-family="sans-serif" dy="1.5625" font-size="25" fill="#2A2C34"/><text text-anchor="middle" pointer-events="none" x="0" y="5" font-size="10px" fill="#2A2C34" font-family="sans-serif"> Sirikhola</text></g><g class="node" transform="translate(262.63013267762045,16.914789746593687)"><circle class="outline" cx="0" cy="0" r="25" fill="#8DCC93" stroke="#5db665" stroke-width="2px"/><text text-anchor="middle" pointer-events="none" font-family="sans-serif" dy="1.5625" font-size="25" fill="#2A2C34"/><text text-anchor="middle" pointer-events="none" x="0" y="5" font-size="10px" fill="#2A2C34" font-family="sans-serif"> Rammam</text></g><g class="node" transform="translate(176.53905437107682,-70.61182201983523)"><circle class="outline" cx="0" cy="0" r="25" fill="#D9C8AE" stroke="#c0a378" stroke-width="2px"/><text text-anchor="middle" pointer-events="none" font-family="sans-serif" dy="1.5625" font-size="25" fill="#2A2C34"/><text text-anchor="middle" pointer-events="none" x="0" y="5" font-size="10px" fill="#2A2C34" font-family="sans-serif"> Sabargr…</text></g><g class="node" transform="translate(158.6129424395874,26.485119730337807)"><circle class="outline" cx="0" cy="0" r="25" fill="#8DCC93" stroke="#5db665" stroke-width="2px"/><text text-anchor="middle" pointer-events="none" font-family="sans-serif" dy="1.5625" font-size="25" fill="#2A2C34"/><text text-anchor="middle" pointer-events="none" x="0" y="5" font-size="10px" fill="#2A2C34" font-family="sans-serif"> Gurdum</text></g><g class="node" transform="translate(10.099467968852817,245.48242710095928)"><circle class="outline" cx="0" cy="0" r="25" fill="#8DCC93" stroke="#5db665" stroke-width="2px"/><text text-anchor="middle" pointer-events="none" font-family="sans-serif" dy="1.5625" font-size="25" fill="#2A2C34"/><text text-anchor="middle" pointer-events="none" x="0" y="5" font-size="10px" fill="#2A2C34" font-family="sans-serif"> Tumbling</text></g><g class="node" transform="translate(-67.72914614303835,162.17592884531123)"><circle class="outline" cx="0" cy="0" r="25" fill="#8DCC93" stroke="#5db665" stroke-width="2px"/><text text-anchor="middle" pointer-events="none" font-family="sans-serif" dy="1.5625" font-size="25" fill="#2A2C34"/><text text-anchor="middle" pointer-events="none" x="0" y="5" font-size="10px" fill="#2A2C34" font-family="sans-serif"> Gairibus</text></g><g class="node" transform="translate(14.238629845853453,80.82917578021754)"><circle class="outline" cx="0" cy="0" r="25" fill="#8DCC93" stroke="#5db665" stroke-width="2px"/><text text-anchor="middle" pointer-events="none" font-family="sans-serif" dy="1.5625" font-size="25" fill="#2A2C34"/><text text-anchor="middle" pointer-events="none" x="0" y="5" font-size="10px" fill="#2A2C34" font-family="sans-serif"> BhikeBh…</text></g></g></svg>