<svg xmlns="http://www.w3.org/2000/svg" width="275.06011962890625" height="379.4859313964844" viewBox="-44.699615478515625 -72.3652572631836 275.06011962890625 379.4859313964844"><title>Neo4j Graph Visualization</title><desc>Created using Neo4j (http://www.neo4j.com/)</desc><g class="layer relationships"><g class="relationship" transform="translate(181.65261280380724 278.1206785404235) rotate(243.55962882811673)"><path class="outline" fill="#A5ABB6" stroke="none" d="M 21.40063509461097,12.933012701892217 L 21.90063509461097,12.06698729810778 A 59.06596564707119 59.06596564707119 0 0 0 40.08362624208823,18.879574140756063 L 39.89146834622183,19.86093816244027 A 60.06596564707119 60.06596564707119 0 0 1 21.40063509461097,12.933012701892217 Z M 59.294857300461516,20.46367745903332 L 59.16398053359981,19.47227881474545 A 59.06596564707119 59.06596564707119 0 0 0 77.73475329039151,13.801396540049248 L 76.39890098945402,11.115228520345342 L 84.22512071985687,11.13210250781242 L 79.5158896916415,17.38295389965446 L 78.18003739070402,14.696785879950552 A 60.06596564707119 60.06596564707119 0 0 1 59.294857300461516,20.46367745903332"/><text text-anchor="middle" pointer-events="none" font-size="8px" fill="#000000" x="49.584176116704676" y="23.451607953071814" transform="rotate(180 49.584176116704676 20.451607953071814)" font-family="sans-serif">trek</text></g><g class="relationship" transform="translate(134.1828485489592 182.6624023259319) rotate(304.435466979775)"><path class="outline" fill="#A5ABB6" stroke="none" d="M 24.018736134675446,-6.953439040707552 L 24.277555179777966,-5.987513214418485 A 129.21066421937894 129.21066421937894 0 0 1 32.86840551491339,-7.977888683494783 L 32.676073631586846,-8.959218621209956 A 130.21066421937894 130.21066421937894 0 0 0 24.018736134675446,-6.953439040707552 Z M 79.06620609332636,-9.628594391336378 L 78.90226813700612,-8.642123739731588 A 129.21066421937894 129.21066421937894 0 0 1 87.54696929611512,-6.900444705495807 L 86.85444363889754,-3.9814708765457483 L 94.47332917320152,-5.771047143479803 L 88.47033683907189,-10.792409810762551 L 87.7778111818543,-7.873435981812492 A 130.21066421937894 130.21066421937894 0 0 0 79.06620609332636,-9.628594391336378"/><text text-anchor="middle" pointer-events="none" font-size="8px" fill="#000000" x="55.848300458381836" y="-7.876758810854824" font-family="sans-serif">twowheeler</text></g><g class="relationship" transform="translate(201.3605256142355 84.68204255645946) rotate(254.7763055530923)"><path class="outline" fill="#A5ABB6" stroke="none" d="M 24.018736134675446,-6.953439040707552 L 24.277555179777966,-5.987513214418485 A 122.67218042870284 122.67218042870284 0 0 1 31.243565838109056,-7.637796552543534 L 31.041532370910073,-8.617175170919268 A 123.67218042870284 123.67218042870284 0 0 0 24.018736134675446,-6.953439040707552 Z M 77.41376674148948,-9.3042911567765 L 77.24083929015502,-8.319356592160673 A 122.67218042870284 122.67218042870284 0 0 1 84.25268685420976,-6.876188782605903 L 83.56242680560072,-3.956678367263245 L 91.17992116477747,-5.752167071741937 L 85.17303358568847,-10.768869336396111 L 84.48277353707944,-7.8493589210534545 A 123.67218042870284 123.67218042870284 0 0 0 77.41376674148948,-9.3042911567765"/><text text-anchor="middle" pointer-events="none" font-size="8px" fill="#000000" x="54.202560527006526" y="-7.653947069253178" transform="rotate(180 54.202560527006526 -10.653947069253178)" font-family="sans-serif">twowheeler</text></g><g class="relationship" transform="translate(171.02917531944348 -26.77368233942282) rotate(187.83887284126234)"><path class="outline" fill="#A5ABB6" stroke="none" d="M 25 0.5 L 47.65706340309499 0.5 L 47.65706340309499 -0.5 L 25 -0.5 Z M 66.99300090309498 0.5 L 89.65006430618998 0.5 L 89.65006430618998 3.5 L 96.65006430618998 0 L 89.65006430618998 -3.5 L 89.65006430618998 -0.5 L 66.99300090309498 -0.5 Z"/><text text-anchor="middle" pointer-events="none" font-size="8px" fill="#000000" x="57.32503215309499" y="3" transform="rotate(180 57.32503215309499 0)" font-family="sans-serif">trek</text></g><g class="relationship" transform="translate(50.51586578219279 -43.36525761360818) rotate(483.694928511394)"><path class="outline" fill="#A5ABB6" stroke="none" d="M 25 0.5 L 46.510266191114304 0.5 L 46.510266191114304 -0.5 L 25 -0.5 Z M 65.84620369111431 0.5 L 87.35646988222861 0.5 L 87.35646988222861 3.5 L 94.35646988222861 0 L 87.35646988222861 -3.5 L 87.35646988222861 -0.5 L 65.84620369111431 -0.5 Z"/><text text-anchor="middle" pointer-events="none" font-size="8px" fill="#000000" x="56.178234941114304" y="3" transform="rotate(180 56.178234941114304 0)" font-family="sans-serif">trek</text></g><g class="relationship" transform="translate(201.3605256142355 84.68204255645946) rotate(198.8537003707027)"><path class="outline" fill="#A5ABB6" stroke="none" d="M 24.018736134675446,-6.953439040707552 L 24.277555179777966,-5.987513214418485 A 110.6545031299654 110.6545031299654 0 0 1 28.273007814274166,-6.97881717437555 L 28.050296225456577,-7.95370155121536 A 111.6545031299654 111.6545031299654 0 0 0 24.018736134675446,-6.953439040707552 Z M 74.37943816714136,-8.675793438007702 L 74.18721672018377,-7.6944418622054656 A 110.6545031299654 110.6545031299654 0 0 1 78.21162229044707,-6.828136430176479 L 77.52585062570328,-3.907568467633142 L 85.14057614717215,-5.714763872864871 L 79.12598451010545,-10.722227046900928 L 78.44021284536167,-7.801659084357591 A 111.6545031299654 111.6545031299654 0 0 0 74.37943816714136,-8.675793438007702"/><text text-anchor="middle" pointer-events="none" font-size="8px" fill="#000000" x="51.18479021533373" y="-7.244475200743054" transform="rotate(180 51.18479021533373 -10.244475200743054)" font-family="sans-serif">twowheeler</text></g><g class="relationship" transform="translate(97.75576246033522 49.303712807314334) rotate(536.65258717956)"><path class="outline" fill="#A5ABB6" stroke="none" d="M 24.018736134675446,6.953439040707552 L 24.277555179777966,5.987513214418485 A 118.96993874254423 118.96993874254423 0 0 0 43.6693328737946,9.493876451433039 L 43.5735111194277,10.489274960267593 A 119.96993874254423 119.96993874254423 0 0 1 24.018736134675446,6.953439040707552 Z M 62.96699185395761,10.781074580356716 L 62.90116077314096,9.783243798711595 A 118.96993874254423 118.96993874254423 0 0 0 82.38965175163817,6.861883727601296 L 81.70072787088208,3.9420577248189455 L 89.31739973825634,5.741032339634131 L 83.30821692597962,10.75498506464443 L 82.61929304522353,7.83515906186208 A 119.96993874254423 119.96993874254423 0 0 1 62.96699185395761,10.781074580356716"/><text text-anchor="middle" pointer-events="none" font-size="8px" fill="#000000" x="53.27186716041132" y="13.527794448409693" transform="rotate(180 53.27186716041132 10.527794448409693)" font-family="sans-serif">trek</text></g><g class="relationship" transform="translate(97.75576246033522 49.303712807314334) rotate(536.65258717956)"><path class="outline" fill="#A5ABB6" stroke="none" d="M 24.018736134675446,-6.953439040707552 L 24.277555179777966,-5.987513214418485 A 118.96993874254423 118.96993874254423 0 0 1 30.32607302551877,-7.439851758680902 L 30.1180947046334,-8.417985194384684 A 119.96993874254423 119.96993874254423 0 0 0 24.018736134675446,-6.953439040707552 Z M 76.47863357258585,-9.115538553370413 L 76.30017726364748,-8.131590716439973 A 118.96993874254423 118.96993874254423 0 0 1 82.38965175163817,-6.861883727601296 L 81.70072787088208,-3.9420577248189455 L 89.31739973825634,-5.741032339634131 L 83.30821692597962,-10.75498506464443 L 82.61929304522353,-7.83515906186208 A 119.96993874254423 119.96993874254423 0 0 0 76.47863357258585,-9.115538553370413"/><text text-anchor="middle" pointer-events="none" font-size="8px" fill="#000000" x="53.27186716041127" y="-7.5277944484096935" transform="rotate(180 53.27186716041127 -10.527794448409693)" font-family="sans-serif">twowheeler</text></g><g class="relationship" transform="translate(201.3605256142355 84.68204255645946) rotate(198.8537003707027)"><path class="outline" fill="#A5ABB6" stroke="none" d="M 24.018736134675446,6.953439040707552 L 24.277555179777966,5.987513214418485 A 110.6545031299654 110.6545031299654 0 0 0 41.5879190715037,9.176491610830197 L 41.48553617135765,10.171236674531286 A 111.6545031299654 111.6545031299654 0 0 1 24.018736134675446,6.953439040707552 Z M 60.88161543105512,10.473546427788477 L 60.810283176720375,9.476093817640248 A 110.6545031299654 110.6545031299654 0 0 0 78.21162229044707,6.828136430176479 L 77.52585062570328,3.907568467633142 L 85.14057614717215,5.714763872864871 L 79.12598451010545,10.722227046900928 L 78.44021284536167,7.801659084357591 A 111.6545031299654 111.6545031299654 0 0 1 60.88161543105512,10.473546427788477"/><text text-anchor="middle" pointer-events="none" font-size="8px" fill="#000000" x="51.184790215333784" y="13.244475200743054" transform="rotate(180 51.184790215333784 10.244475200743054)" font-family="sans-serif">trek</text></g><g class="relationship" transform="translate(201.3605256142355 84.68204255645946) rotate(254.7763055530923)"><path class="outline" fill="#A5ABB6" stroke="none" d="M 24.018736134675446,6.953439040707552 L 24.277555179777966,5.987513214418485 A 122.67218042870284 122.67218042870284 0 0 0 44.59778089104593,9.633840385895766 L 44.50460841422201,10.629490369355054 A 123.67218042870284 123.67218042870284 0 0 1 24.018736134675446,6.953439040707552 Z M 63.89697971001764,10.916834908644134 L 63.83334755035361,9.918861488027886 A 122.67218042870284 122.67218042870284 0 0 0 84.25268685420976,6.876188782605903 L 83.56242680560072,3.956678367263245 L 91.17992116477747,5.752167071741937 L 85.17303358568847,10.768869336396111 L 84.48277353707944,7.8493589210534545 A 123.67218042870284 123.67218042870284 0 0 1 63.89697971001764,10.916834908644134"/><text text-anchor="middle" pointer-events="none" font-size="8px" fill="#000000" x="54.202560527006575" y="13.653947069253178" transform="rotate(180 54.202560527006575 10.653947069253178)" font-family="sans-serif">trek</text></g><g class="relationship" transform="translate(134.1828485489592 182.6624023259319) rotate(186.13827496591034)"><path class="outline" fill="#A5ABB6" stroke="none" d="M 25 0.5 L 46.816169535654986 0.5 L 46.816169535654986 -0.5 L 25 -0.5 Z M 66.15210703565498 0.5 L 87.96827657130997 0.5 L 87.96827657130997 3.5 L 94.96827657130997 0 L 87.96827657130997 -3.5 L 87.96827657130997 -0.5 L 66.15210703565498 -0.5 Z"/><text text-anchor="middle" pointer-events="none" font-size="8px" fill="#000000" x="56.484138285654986" y="3" transform="rotate(180 56.484138285654986 0)" font-family="sans-serif">trek</text></g><g class="relationship" transform="translate(14.902381862236718 169.8343997344133) rotate(254.9605768743561)"><path class="outline" fill="#A5ABB6" stroke="none" d="M 25 0.5 L 45.799145949503554 0.5 L 45.799145949503554 -0.5 L 25 -0.5 Z M 65.13508344950355 0.5 L 85.93422939900711 0.5 L 85.93422939900711 3.5 L 92.93422939900711 0 L 85.93422939900711 -3.5 L 85.93422939900711 -0.5 L 65.13508344950355 -0.5 Z"/><text text-anchor="middle" pointer-events="none" font-size="8px" fill="#000000" x="55.467114699503554" y="3" transform="rotate(180 55.467114699503554 0)" font-family="sans-serif">trek</text></g><g class="relationship" transform="translate(134.1828485489592 182.6624023259319) rotate(304.435466979775)"><path class="outline" fill="#A5ABB6" stroke="none" d="M 24.018736134675446,6.953439040707552 L 24.277555179777966,5.987513214418485 A 129.21066421937894 129.21066421937894 0 0 0 46.23990508627943,9.879281829626422 L 46.151059239899986,10.875327217940196 A 130.21066421937894 130.21066421937894 0 0 1 24.018736134675446,6.953439040707552 Z M 65.54154581663921,11.155117794010124 L 65.48147539188997,10.156923652537415 A 129.21066421937894 129.21066421937894 0 0 0 87.54696929611512,6.900444705495807 L 86.85444363889754,3.9814708765457483 L 94.47332917320152,5.771047143479803 L 88.47033683907189,10.792409810762551 L 87.7778111818543,7.873435981812492 A 130.21066421937894 130.21066421937894 0 0 1 65.54154581663921,11.155117794010124"/><text text-anchor="middle" pointer-events="none" font-size="8px" fill="#000000" x="55.84830045838183" y="13.876758810854824" font-family="sans-serif">trek</text></g><g class="relationship" transform="translate(181.65261280380724 278.1206785404235) rotate(243.55962882811673)"><path class="outline" fill="#A5ABB6" stroke="none" d="M 25 0.5 L 26.058833358694706 0.5 L 26.058833358694706 -0.5 L 25 -0.5 Z M 73.5510208586947 0.5 L 74.60985421738941 0.5 L 74.60985421738941 3.5 L 81.60985421738941 0 L 74.60985421738941 -3.5 L 74.60985421738941 -0.5 L 73.5510208586947 -0.5 Z"/><text text-anchor="middle" pointer-events="none" font-size="8px" fill="#000000" x="49.804927108694706" y="3" transform="rotate(180 49.804927108694706 0)" font-family="sans-serif">PublicTra…</text></g><g class="relationship" transform="translate(181.65261280380724 278.1206785404235) rotate(243.55962882811673)"><path class="outline" fill="#A5ABB6" stroke="none" d="M 21.40063509461097,-12.933012701892217 L 21.90063509461097,-12.06698729810778 A 59.06596564707119 59.06596564707119 0 0 1 38.78466182903699,-18.610046762446174 L 38.57051217533135,-19.586847625374617 A 60.06596564707119 60.06596564707119 0 0 0 21.40063509461097,-12.933012701892217 Z M 60.630278688382376,-20.272103597021676 L 60.477169341497444,-19.283894343929767 A 59.06596564707119 59.06596564707119 0 0 1 77.73475329039151,-13.801396540049248 L 76.39890098945402,-11.115228520345342 L 84.22512071985687,-11.13210250781242 L 79.5158896916415,-17.38295389965446 L 78.18003739070402,-14.696785879950552 A 60.06596564707119 60.06596564707119 0 0 0 60.630278688382376,-20.272103597021676"/><text text-anchor="middle" pointer-events="none" font-size="8px" fill="#000000" x="49.58417611670467" y="-17.451607953071814" transform="rotate(180 49.58417611670467 -20.451607953071814)" font-family="sans-serif">road</text></g><g class="relationship" transform="translate(171.02917531944348 -26.77368233942282) rotate(493.9244284583576)"><path class="outline" fill="#A5ABB6" stroke="none" d="M 21.40063509461097,12.933012701892217 L 21.90063509461097,12.06698729810778 A 58.046815436959115 58.046815436959115 0 0 0 26.823937984404367,14.604334871151963 L 26.408754056616637,15.51407236411724 A 59.046815436959115 59.046815436959115 0 0 1 21.40063509461097,12.933012701892217 Z M 72.02782741919714,16.943653907545894 L 71.67041975123175,16.009705429909395 A 58.046815436959115 58.046815436959115 0 0 0 76.74293401738468,13.785600425473609 L 75.40855119156019,11.09870212554772 L 83.23476052151584,11.119856881870769 L 78.522111118484,17.368131492041464 L 77.18772829265951,14.681233192115572 A 59.046815436959115 59.046815436959115 0 0 1 72.02782741919714,16.943653907545894"/><text text-anchor="middle" pointer-events="none" font-size="8px" fill="#000000" x="49.090240104422776" y="23.315059736430022" transform="rotate(180 49.090240104422776 20.315059736430022)" font-family="sans-serif">twowheeler</text></g><g class="relationship" transform="translate(171.02917531944348 -26.77368233942282) rotate(493.9244284583576)"><path class="outline" fill="#A5ABB6" stroke="none" d="M 25 0.5 L 38.30693046878244 0.5 L 38.30693046878244 -0.5 L 25 -0.5 Z M 60.31864921878244 0.5 L 73.62557968756488 0.5 L 73.62557968756488 3.5 L 80.62557968756488 0 L 73.62557968756488 -3.5 L 73.62557968756488 -0.5 L 60.31864921878244 -0.5 Z"/><text text-anchor="middle" pointer-events="none" font-size="8px" fill="#000000" x="49.31278984378244" y="3" transform="rotate(180 49.31278984378244 0)" font-family="sans-serif">road</text></g><g class="relationship" transform="translate(171.02917531944348 -26.77368233942282) rotate(493.9244284583576)"><path class="outline" fill="#A5ABB6" stroke="none" d="M 21.40063509461097,-12.933012701892217 L 21.90063509461097,-12.06698729810778 A 58.046815436959115 58.046815436959115 0 0 1 39.59341729613891,-18.727188400060164 L 39.39821924036862,-19.70795224473609 A 59.046815436959115 59.046815436959115 0 0 0 21.40063509461097,-12.933012701892217 Z M 58.80125689289719,-20.31599231372308 L 58.667850645303425,-19.32493087612047 A 58.046815436959115 58.046815436959115 0 0 1 76.74293401738468,-13.785600425473609 L 75.40855119156019,-11.09870212554772 L 83.23476052151584,-11.119856881870769 L 78.522111118484,-17.368131492041464 L 77.18772829265951,-14.681233192115572 A 59.046815436959115 59.046815436959115 0 0 0 58.80125689289719,-20.31599231372308"/><text text-anchor="middle" pointer-events="none" font-size="8px" fill="#000000" x="49.09024010442278" y="-17.315059736430022" transform="rotate(180 49.09024010442278 -20.315059736430022)" font-family="sans-serif">trek</text></g></g><g class="layer nodes"><g class="node" transform="translate(181.65261280380724,278.1206785404235)"><circle class="outline" cx="0" cy="0" r="25" fill="#F16667" stroke="#eb2728" stroke-width="2px"/><text text-anchor="middle" pointer-events="none" font-family="sans-serif" dy="1.5625" font-size="25" fill="#FFFFFF"/><text text-anchor="middle" pointer-events="none" x="0" y="5" font-size="10px" fill="#FFFFFF" font-family="sans-serif"> Darjeeling</text></g><g class="node" transform="translate(134.1828485489592,182.6624023259319)"><circle class="outline" cx="0" cy="0" r="25" fill="#F16667" stroke="#eb2728" stroke-width="2px"/><text text-anchor="middle" pointer-events="none" font-family="sans-serif" dy="1.5625" font-size="25" fill="#FFFFFF"/><text text-anchor="middle" pointer-events="none" x="0" y="5" font-size="10px" fill="#FFFFFF" font-family="sans-serif"> Rimbik</text></g><g class="node" transform="translate(201.3605256142355,84.68204255645946)"><circle class="outline" cx="0" cy="0" r="25" fill="#8DCC93" stroke="#5db665" stroke-width="2px"/><text text-anchor="middle" pointer-events="none" font-family="sans-serif" dy="1.5625" font-size="25" fill="#2A2C34"/><text text-anchor="middle" pointer-events="none" x="0" y="5" font-size="10px" fill="#2A2C34" font-family="sans-serif"> Sirikhola</text></g><g class="node" transform="translate(171.02917531944348,-26.77368233942282)"><circle class="outline" cx="0" cy="0" r="25" fill="#8DCC93" stroke="#5db665" stroke-width="2px"/><text text-anchor="middle" pointer-events="none" font-family="sans-serif" dy="1.5625" font-size="25" fill="#2A2C34"/><text text-anchor="middle" pointer-events="none" x="0" y="5" font-size="10px" fill="#2A2C34" font-family="sans-serif"> Rammam</text></g><g class="node" transform="translate(50.51586578219279,-43.36525761360818)"><circle class="outline" cx="0" cy="0" r="25" fill="#D9C8AE" stroke="#c0a378" stroke-width="2px"/><text text-anchor="middle" pointer-events="none" font-family="sans-serif" dy="1.5625" font-size="25" fill="#2A2C34"/><text text-anchor="middle" pointer-events="none" x="0" y="5" font-size="10px" fill="#2A2C34" font-family="sans-serif"> Sabargr…</text></g><g class="node" transform="translate(-15.69961677395162,55.939710905616884)"><circle class="outline" cx="0" cy="0" r="25" fill="#D9C8AE" stroke="#c0a378" stroke-width="2px"/><text text-anchor="middle" pointer-events="none" font-family="sans-serif" dy="1.5625" font-size="25" fill="#2A2C34"/><text text-anchor="middle" pointer-events="none" x="0" y="5" font-size="10px" fill="#2A2C34" font-family="sans-serif"> Sandak…</text></g><g class="node" transform="translate(97.75576246033522,49.303712807314334)"><circle class="outline" cx="0" cy="0" r="25" fill="#8DCC93" stroke="#5db665" stroke-width="2px"/><text text-anchor="middle" pointer-events="none" font-family="sans-serif" dy="1.5625" font-size="25" fill="#2A2C34"/><text text-anchor="middle" pointer-events="none" x="0" y="5" font-size="10px" fill="#2A2C34" font-family="sans-serif"> Gurdum</text></g><g class="node" transform="translate(14.902381862236718,169.8343997344133)"><circle class="outline" cx="0" cy="0" r="25" fill="#8DCC93" stroke="#5db665" stroke-width="2px"/><text text-anchor="middle" pointer-events="none" font-family="sans-serif" dy="1.5625" font-size="25" fill="#2A2C34"/><text text-anchor="middle" pointer-events="none" x="0" y="5" font-size="10px" fill="#2A2C34" font-family="sans-serif"> BhikeBh…</text></g></g></svg>